<svg xmlns="http://www.w3.org/2000/svg" viewBox="0 0 36.15 143.17"><title>myvr</title><g id="Layer_2" data-name="Layer 2"><g id="Layer_1-2" data-name="Layer 1"><path d="M22.81,124.24c.58-.25,1.16-.48,1.74-.72-.6-.23-1.19-.47-1.78-.72s-1.14-.52-1.67-.8l-20-10.7a2.63,2.63,0,0,1-.59-.41,1.26,1.26,0,0,1-.33-.48,2,2,0,0,1-.13-.59c0-.21,0-.47,0-.77V104H36.15v5.93H12.8c-.43,0-.91,0-1.42,0s-1.05-.06-1.58-.11l20.5,10.92a2.89,2.89,0,0,1,1.09,1,2.51,2.51,0,0,1,.38,1.4V124a2.49,2.49,0,0,1-.38,1.4,2.89,2.89,0,0,1-1.09,1L9.73,137.42c.54-.06,1.08-.11,1.61-.13s1,0,1.46,0H36.15v5.92H0V138.1c0-.3,0-.56,0-.78a2.06,2.06,0,0,1,.13-.58,1.29,1.29,0,0,1,.33-.49,2.65,2.65,0,0,1,.59-.43L21.15,125C21.68,124.74,22.24,124.48,22.81,124.24Z" style="fill:#707071"/><path d="M22.1,80.6h14v6.72h-14L0,100.5V94.57a2.11,2.11,0,0,1,.42-1.38,3.9,3.9,0,0,1,1.08-.87L13.57,85.7c.72-.38,1.4-.72,2-1s1.27-.54,1.89-.78c-.63-.21-1.27-.46-1.91-.73s-1.32-.61-2-1L1.5,75.62a3.1,3.1,0,0,1-1-.82A2.05,2.05,0,0,1,0,73.4v-6Z" style="fill:#707071"/><path d="M0,67.5V62.07a2.28,2.28,0,0,1,.42-1.42,2.68,2.68,0,0,1,1.1-.83l22.05-8.5q1.08-.42,2.37-.81c.86-.26,1.76-.5,2.71-.74a30.46,30.46,0,0,1-5.08-1.42l-22-8.48a2.5,2.5,0,0,1-1-.8A2.12,2.12,0,0,1,0,37.65V32.22l36.15,14.6V52.9Z" style="fill:#707071"/><path d="M22,21.5H36.15v6.73H0v-11a23,23,0,0,1,.76-6.34A12,12,0,0,1,2.9,6.54,8.26,8.26,0,0,1,6.19,4.06a11,11,0,0,1,4.21-.79,10.84,10.84,0,0,1,3.45.54,10.14,10.14,0,0,1,3,1.55,10.73,10.73,0,0,1,2.33,2.5,13.61,13.61,0,0,1,1.6,3.39,6.64,6.64,0,0,1,2.07-2.2L36.15,0V6.05a3,3,0,0,1-.35,1.49,3.09,3.09,0,0,1-1,1l-11.57,7.6a2.57,2.57,0,0,0-.93.93A3.32,3.32,0,0,0,22,18.62Zm-4.82,0V17.3A10.57,10.57,0,0,0,16.73,14a6.49,6.49,0,0,0-1.32-2.33,5.24,5.24,0,0,0-2-1.36,6.81,6.81,0,0,0-2.52-.45,5.15,5.15,0,0,0-4.23,1.81Q5.2,13.47,5.2,17.2v4.3Z" style="fill:#707071"/></g></g></svg>