<svg xmlns="http://www.w3.org/2000/svg" viewBox="0 0 36.95 171.87"><title>nycdf</title><g id="Layer_2" data-name="Layer 2"><g id="Layer_1-2" data-name="Layer 1"><path d="M.44,167.6a1.54,1.54,0,0,1,.15-.54,1.67,1.67,0,0,1,.32-.46,5,5,0,0,1,.56-.5l24.18-19c-.58.07-1.15.12-1.71.14s-1.08,0-1.56,0H.4v-5.93H36.55v3.48a2.58,2.58,0,0,1-1.15,2.35L11.32,166.1c.54,0,1.07-.09,1.59-.11s1,0,1.44,0h22.2v5.92H.4v-3.52A5.28,5.28,0,0,1,.44,167.6Z" style="fill:#707071"/><path d="M22.5,118h14v6.72h-14L.4,137.9V132a2.11,2.11,0,0,1,.42-1.38,3.9,3.9,0,0,1,1.08-.87L14,123.1c.72-.38,1.4-.72,2-1s1.27-.54,1.89-.78c-.63-.21-1.27-.46-1.91-.73s-1.32-.61-2-1L1.9,113a3.1,3.1,0,0,1-1-.82,2.05,2.05,0,0,1-.48-1.4v-6Z" style="fill:#707071"/><path d="M28,78.5a1.28,1.28,0,0,1,.43-1l2.87-2.65a14.6,14.6,0,0,1,4.18,5.41A18.58,18.58,0,0,1,37,88a18.15,18.15,0,0,1-1.38,7.24,16,16,0,0,1-3.82,5.49,16.67,16.67,0,0,1-5.85,3.49,22.18,22.18,0,0,1-7.43,1.21A20,20,0,0,1,11,104.1a16.84,16.84,0,0,1-9.65-9.66A20.15,20.15,0,0,1,0,86.9a17.8,17.8,0,0,1,1.29-7A16.34,16.34,0,0,1,4.7,74.7L7.82,77a2,2,0,0,1,.53.51,1.46,1.46,0,0,1,.22.86,2,2,0,0,1-.45,1.18,15.21,15.21,0,0,0-1,1.52,12.59,12.59,0,0,0-1,2.34A12.37,12.37,0,0,0,5.72,87a12.17,12.17,0,0,0,.89,4.69,10.38,10.38,0,0,0,2.54,3.67,11.56,11.56,0,0,0,4,2.4,15.33,15.33,0,0,0,5.31.86,15.71,15.71,0,0,0,5.43-.86,11.74,11.74,0,0,0,4-2.34,10.08,10.08,0,0,0,2.49-3.47,10.83,10.83,0,0,0,.86-4.3,18.72,18.72,0,0,0-.15-2.49,10.43,10.43,0,0,0-.48-2,8.92,8.92,0,0,0-.83-1.77,11,11,0,0,0-1.27-1.67,2.55,2.55,0,0,1-.36-.52A1.33,1.33,0,0,1,28,78.5Z" style="fill:#707071"/><path d="M18.47,28.08a19.59,19.59,0,0,1,7.3,1.32,16.32,16.32,0,0,1,9.45,9.5,20.16,20.16,0,0,1,1.33,7.48v13.8H.4V46.38A20.16,20.16,0,0,1,1.74,38.9a17,17,0,0,1,3.72-5.78,16.76,16.76,0,0,1,5.71-3.72A19.63,19.63,0,0,1,18.47,28.08Zm0,6.87a16.63,16.63,0,0,0-5.33.8,11.11,11.11,0,0,0-4,2.28,9.86,9.86,0,0,0-2.52,3.58,12.44,12.44,0,0,0-.87,4.77v7H31.2v-7a12.25,12.25,0,0,0-.88-4.77A9.71,9.71,0,0,0,27.81,38a11.11,11.11,0,0,0-4-2.28A16.65,16.65,0,0,0,18.47,35Z" style="fill:#707071"/><path d="M.4,0H5.75V16h10.7V2.5h5.37V16H36.55V22.8H.4Z" style="fill:#707071"/></g></g></svg>